function data()
return {
	subMeshes = {
		{
			indices = {
				normal = {
					count = 44736,
					offset = 260588,
				},
				position = {
					count = 44736,
					offset = 171116,
				},
				tangent = {
					count = 44736,
					offset = 305324,
				},
				uv0 = {
					count = 44736,
					offset = 215852,
				},
			},
		},
	},
	vertexAttr = {
		normal = {
			count = 34188,
			numComp = 3,
			offset = 66464,
		},
		position = {
			count = 37776,
			numComp = 3,
			offset = 0,
		},
		tangent = {
			count = 70464,
			numComp = 4,
			offset = 100652,
		},
		uv0 = {
			count = 28688,
			numComp = 2,
			offset = 37776,
		},
	},
}
end
