function data()
return {
	subMeshes = {
		{
			indices = {
				normal = {
					count = 19992,
					offset = 114436,
				},
				position = {
					count = 19992,
					offset = 74452,
				},
				tangent = {
					count = 19992,
					offset = 134428,
				},
				uv0 = {
					count = 19992,
					offset = 94444,
				},
			},
		},
	},
	vertexAttr = {
		normal = {
			count = 15492,
			numComp = 3,
			offset = 28848,
		},
		position = {
			count = 17040,
			numComp = 3,
			offset = 0,
		},
		tangent = {
			count = 30112,
			numComp = 4,
			offset = 44340,
		},
		uv0 = {
			count = 11808,
			numComp = 2,
			offset = 17040,
		},
	},
}
end
