function data()
return {
	subMeshes = {
		{
			indices = {
				normal = {
					count = 4272,
					offset = 22960,
				},
				position = {
					count = 4272,
					offset = 14416,
				},
				tangent = {
					count = 4272,
					offset = 27232,
				},
				uv0 = {
					count = 4272,
					offset = 18688,
				},
			},
		},
		{
			indices = {
				normal = {
					count = 204,
					offset = 31912,
				},
				position = {
					count = 204,
					offset = 31504,
				},
				tangent = {
					count = 204,
					offset = 32116,
				},
				uv0 = {
					count = 204,
					offset = 31708,
				},
			},
		},
	},
	vertexAttr = {
		normal = {
			count = 2652,
			numComp = 3,
			offset = 5476,
		},
		position = {
			count = 2364,
			numComp = 3,
			offset = 0,
		},
		tangent = {
			count = 6288,
			numComp = 4,
			offset = 8128,
		},
		uv0 = {
			count = 3112,
			numComp = 2,
			offset = 2364,
		},
	},
}
end
