function data()
return {
	subMeshes = {
		{
			indices = {
				normal = {
					count = 2544,
					offset = 16680,
				},
				position = {
					count = 2544,
					offset = 11592,
				},
				tangent = {
					count = 2544,
					offset = 19224,
				},
				uv0 = {
					count = 2544,
					offset = 14136,
				},
			},
		},
		{
			indices = {
				normal = {
					count = 168,
					offset = 22104,
				},
				position = {
					count = 168,
					offset = 21768,
				},
				tangent = {
					count = 168,
					offset = 22272,
				},
				uv0 = {
					count = 168,
					offset = 21936,
				},
			},
		},
	},
	vertexAttr = {
		normal = {
			count = 1776,
			numComp = 3,
			offset = 5432,
		},
		position = {
			count = 3240,
			numComp = 3,
			offset = 0,
		},
		tangent = {
			count = 4384,
			numComp = 4,
			offset = 7208,
		},
		uv0 = {
			count = 2192,
			numComp = 2,
			offset = 3240,
		},
	},
}
end
