function data()
return { 
		subMeshes = {
			{ 
				indices = { 
					normal = { 
						count = 92352,
						offset = 1015284,
					},
					position = { 
						count = 92352,
						offset = 830580,
					},
					tangent = { 
						count = 92352,
						offset = 1107636,
					},
					uv0 = { 
						count = 92352,
						offset = 922932,
					},
				},
			},
		},
		vertexAttr = { 
			normal = { 
				count = 277056,
				numComp = 3,
				offset = 184116,
			},
			position = { 
				count = 98532,
				numComp = 3,
				offset = 0,
			},
			tangent = { 
				count = 369408,
				numComp = 4,
				offset = 461172,
			},
			uv0 = { 
				count = 85584,
				numComp = 2,
				offset = 98532,
			},
		},
	}
end