function data()
return { 
		subMeshes = {
			{ 
				indices = { 
					normal = { 
						count = 44160,
						offset = 466560,
					},
					position = { 
						count = 44160,
						offset = 378240,
					},
					tangent = { 
						count = 44160,
						offset = 510720,
					},
					uv0 = { 
						count = 44160,
						offset = 422400,
					},
				},
			},
		},
		vertexAttr = { 
			normal = { 
				count = 132480,
				numComp = 3,
				offset = 69120,
			},
			position = { 
				count = 40992,
				numComp = 3,
				offset = 0,
			},
			tangent = { 
				count = 176640,
				numComp = 4,
				offset = 201600,
			},
			uv0 = { 
				count = 28128,
				numComp = 2,
				offset = 40992,
			},
		},
	}
end