function data()
return { 
		subMeshes = {
			{ 
				indices = { 
					normal = { 
						count = 15600,
						offset = 165968,
					},
					position = { 
						count = 15600,
						offset = 134768,
					},
					tangent = { 
						count = 15600,
						offset = 181568,
					},
					uv0 = { 
						count = 15600,
						offset = 150368,
					},
				},
			},
		},
		vertexAttr = { 
			normal = { 
				count = 46800,
				numComp = 3,
				offset = 25568,
			},
			position = { 
				count = 15072,
				numComp = 3,
				offset = 0,
			},
			tangent = { 
				count = 62400,
				numComp = 4,
				offset = 72368,
			},
			uv0 = { 
				count = 10496,
				numComp = 2,
				offset = 15072,
			},
		},
	}
end