function data()
return { 
		subMeshes = {
			{ 
				indices = { 
					normal = { 
						count = 6792,
						offset = 73816,
					},
					position = { 
						count = 6792,
						offset = 60232,
					},
					tangent = { 
						count = 6792,
						offset = 80608,
					},
					uv0 = { 
						count = 6792,
						offset = 67024,
					},
				},
			},
		},
		vertexAttr = { 
			normal = { 
				count = 20376,
				numComp = 3,
				offset = 12688,
			},
			position = { 
				count = 7512,
				numComp = 3,
				offset = 0,
			},
			tangent = { 
				count = 27168,
				numComp = 4,
				offset = 33064,
			},
			uv0 = { 
				count = 5176,
				numComp = 2,
				offset = 7512,
			},
		},
	}
end