function data()
return { 
		subMeshes = {
			{ 
				indices = { 
					normal = { 
						count = 20424,
						offset = 226000,
					},
					position = { 
						count = 20424,
						offset = 185152,
					},
					tangent = { 
						count = 20424,
						offset = 246424,
					},
					uv0 = { 
						count = 20424,
						offset = 205576,
					},
				},
			},
		},
		vertexAttr = { 
			normal = { 
				count = 61272,
				numComp = 3,
				offset = 42184,
			},
			position = { 
				count = 24552,
				numComp = 3,
				offset = 0,
			},
			tangent = { 
				count = 81696,
				numComp = 4,
				offset = 103456,
			},
			uv0 = { 
				count = 17632,
				numComp = 2,
				offset = 24552,
			},
		},
	}
end