function data()
return { 
		subMeshes = {
			{ 
				indices = { 
					normal = { 
						count = 59568,
						offset = 645752,
					},
					position = { 
						count = 59568,
						offset = 526616,
					},
					tangent = { 
						count = 59568,
						offset = 705320,
					},
					uv0 = { 
						count = 59568,
						offset = 586184,
					},
				},
			},
		},
		vertexAttr = { 
			normal = { 
				count = 178704,
				numComp = 3,
				offset = 109640,
			},
			position = { 
				count = 63552,
				numComp = 3,
				offset = 0,
			},
			tangent = { 
				count = 238272,
				numComp = 4,
				offset = 288344,
			},
			uv0 = { 
				count = 46088,
				numComp = 2,
				offset = 63552,
			},
		},
	}
end