function data()
return { 
		subMeshes = {
			{ 
				indices = { 
					normal = { 
						count = 31956,
						offset = 400080,
					},
					position = { 
						count = 31956,
						offset = 336168,
					},
					tangent = { 
						count = 31956,
						offset = 432036,
					},
					uv0 = { 
						count = 31956,
						offset = 368124,
					},
					uv1 = { 
						count = 31956,
						offset = 463992,
					},
				},
			},
		},
		vertexAttr = { 
			normal = { 
				count = 95868,
				numComp = 3,
				offset = 81524,
			},
			position = { 
				count = 46428,
				numComp = 3,
				offset = 0,
			},
			tangent = { 
				count = 127824,
				numComp = 4,
				offset = 177392,
			},
			uv0 = { 
				count = 35096,
				numComp = 2,
				offset = 46428,
			},
			uv1 = { 
				count = 30952,
				numComp = 2,
				offset = 305216,
			},
		},
	}
end