function data()
return { 
		subMeshes = {
			{ 
				indices = { 
					normal = { 
						count = 22728,
						offset = 250292,
					},
					position = { 
						count = 22728,
						offset = 204836,
					},
					tangent = { 
						count = 22728,
						offset = 273020,
					},
					uv0 = { 
						count = 22728,
						offset = 227564,
					},
				},
			},
		},
		vertexAttr = { 
			normal = { 
				count = 68184,
				numComp = 3,
				offset = 45740,
			},
			position = { 
				count = 27060,
				numComp = 3,
				offset = 0,
			},
			tangent = { 
				count = 90912,
				numComp = 4,
				offset = 113924,
			},
			uv0 = { 
				count = 18680,
				numComp = 2,
				offset = 27060,
			},
		},
	}
end