function data()
return { 
		subMeshes = {
			{ 
				indices = { 
					normal = { 
						count = 8748,
						offset = 90272,
					},
					position = { 
						count = 8748,
						offset = 72776,
					},
					tangent = { 
						count = 8748,
						offset = 99020,
					},
					uv0 = { 
						count = 8748,
						offset = 81524,
					},
				},
			},
		},
		vertexAttr = { 
			normal = { 
				count = 26244,
				numComp = 3,
				offset = 11540,
			},
			position = { 
				count = 6924,
				numComp = 3,
				offset = 0,
			},
			tangent = { 
				count = 34992,
				numComp = 4,
				offset = 37784,
			},
			uv0 = { 
				count = 4616,
				numComp = 2,
				offset = 6924,
			},
		},
	}
end