function data()
return {
	subMeshes = {
		{
			indices = {
				normal = {
					count = 9324,
					offset = 96496,
				},
				position = {
					count = 9324,
					offset = 77848,
				},
				tangent = {
					count = 9324,
					offset = 105820,
				},
				uv0 = {
					count = 9324,
					offset = 87172,
				},
			},
		},
	},
	vertexAttr = {
		normal = {
			count = 27972,
			numComp = 3,
			offset = 12580,
		},
		position = {
			count = 7548,
			numComp = 3,
			offset = 0,
		},
		tangent = {
			count = 37296,
			numComp = 4,
			offset = 40552,
		},
		uv0 = {
			count = 5032,
			numComp = 2,
			offset = 7548,
		},
	},
}
end
