function data()
return {
	subMeshes = {
		{
			indices = {
				normal = {
					count = 9888,
					offset = 102612,
				},
				position = {
					count = 9888,
					offset = 82836,
				},
				tangent = {
					count = 9888,
					offset = 112500,
				},
				uv0 = {
					count = 9888,
					offset = 92724,
				},
			},
		},
	},
	vertexAttr = {
		normal = {
			count = 29664,
			numComp = 3,
			offset = 13620,
		},
		position = {
			count = 8172,
			numComp = 3,
			offset = 0,
		},
		tangent = {
			count = 39552,
			numComp = 4,
			offset = 43284,
		},
		uv0 = {
			count = 5448,
			numComp = 2,
			offset = 8172,
		},
	},
}
end
