function data()
return {
	subMeshes = {
		{
			indices = {
				normal = {
					count = 22068,
					offset = 243204,
				},
				position = {
					count = 22068,
					offset = 199068,
				},
				tangent = {
					count = 22068,
					offset = 265272,
				},
				uv0 = {
					count = 22068,
					offset = 221136,
				},
			},
		},
	},
	vertexAttr = {
		normal = {
			count = 66204,
			numComp = 3,
			offset = 44592,
		},
		position = {
			count = 26376,
			numComp = 3,
			offset = 0,
		},
		tangent = {
			count = 88272,
			numComp = 4,
			offset = 110796,
		},
		uv0 = {
			count = 18216,
			numComp = 2,
			offset = 26376,
		},
	},
}
end
