function data()
return {
	subMeshes = {
		{
			indices = {
				normal = {
					count = 48420,
					offset = 531936,
				},
				position = {
					count = 48420,
					offset = 435096,
				},
				tangent = {
					count = 48420,
					offset = 580356,
				},
				uv0 = {
					count = 48420,
					offset = 483516,
				},
			},
		},
	},
	vertexAttr = {
		normal = {
			count = 145260,
			numComp = 3,
			offset = 96156,
		},
		position = {
			count = 56388,
			numComp = 3,
			offset = 0,
		},
		tangent = {
			count = 193680,
			numComp = 4,
			offset = 241416,
		},
		uv0 = {
			count = 39768,
			numComp = 2,
			offset = 56388,
		},
	},
}
end
