function data()
return {
	subMeshes = {
		{
			indices = {
				normal = {
					count = 51108,
					offset = 568768,
				},
				position = {
					count = 51108,
					offset = 466552,
				},
				tangent = {
					count = 51108,
					offset = 619876,
				},
				uv0 = {
					count = 51108,
					offset = 517660,
				},
			},
		},
	},
	vertexAttr = {
		normal = {
			count = 153324,
			numComp = 3,
			offset = 108796,
		},
		position = {
			count = 58956,
			numComp = 3,
			offset = 0,
		},
		tangent = {
			count = 204432,
			numComp = 4,
			offset = 262120,
		},
		uv0 = {
			count = 49840,
			numComp = 2,
			offset = 58956,
		},
	},
}
end
