function data()
return {
	subMeshes = {
		{
			indices = {
				normal = {
					count = 132408,
					offset = 830840,
				},
				position = {
					count = 132408,
					offset = 566024,
				},
				tangent = {
					count = 132408,
					offset = 963248,
				},
				uv0 = {
					count = 132408,
					offset = 698432,
				},
				uv1 = {
					count = 132408,
					offset = 1095656,
				},
			},
		},
	},
	vertexAttr = {
		normal = {
			count = 90912,
			numComp = 3,
			offset = 212712,
		},
		position = {
			count = 123072,
			numComp = 3,
			offset = 0,
		},
		tangent = {
			count = 180192,
			numComp = 4,
			offset = 303624,
		},
		uv0 = {
			count = 89640,
			numComp = 2,
			offset = 123072,
		},
		uv1 = {
			count = 82208,
			numComp = 2,
			offset = 483816,
		},
	},
}
end
