function data()
return {
	subMeshes = {
		{
			indices = {
				normal = {
					count = 61908,
					offset = 674584,
				},
				position = {
					count = 61908,
					offset = 550768,
				},
				tangent = {
					count = 61908,
					offset = 736492,
				},
				uv0 = {
					count = 61908,
					offset = 612676,
				},
			},
		},
	},
	vertexAttr = {
		normal = {
			count = 185724,
			numComp = 3,
			offset = 117412,
		},
		position = {
			count = 68340,
			numComp = 3,
			offset = 0,
		},
		tangent = {
			count = 247632,
			numComp = 4,
			offset = 303136,
		},
		uv0 = {
			count = 49072,
			numComp = 2,
			offset = 68340,
		},
	},
}
end
