function data()
return {
	subMeshes = {
		{
			indices = {
				normal = {
					count = 62316,
					offset = 678960,
				},
				position = {
					count = 62316,
					offset = 554328,
				},
				tangent = {
					count = 62316,
					offset = 741276,
				},
				uv0 = {
					count = 62316,
					offset = 616644,
				},
			},
		},
	},
	vertexAttr = {
		normal = {
			count = 186948,
			numComp = 3,
			offset = 118116,
		},
		position = {
			count = 68748,
			numComp = 3,
			offset = 0,
		},
		tangent = {
			count = 249264,
			numComp = 4,
			offset = 305064,
		},
		uv0 = {
			count = 49368,
			numComp = 2,
			offset = 68748,
		},
	},
}
end
