function data()
return {
	subMeshes = {
		{
			indices = {
				normal = {
					count = 30036,
					offset = 327576,
				},
				position = {
					count = 30036,
					offset = 267504,
				},
				tangent = {
					count = 30036,
					offset = 357612,
				},
				uv0 = {
					count = 30036,
					offset = 297540,
				},
			},
		},
	},
	vertexAttr = {
		normal = {
			count = 90108,
			numComp = 3,
			offset = 57252,
		},
		position = {
			count = 33204,
			numComp = 3,
			offset = 0,
		},
		tangent = {
			count = 120144,
			numComp = 4,
			offset = 147360,
		},
		uv0 = {
			count = 24048,
			numComp = 2,
			offset = 33204,
		},
	},
}
end
