function data()
return {
	subMeshes = {
		{
			indices = {
				normal = {
					count = 136284,
					offset = 1444376,
				},
				position = {
					count = 136284,
					offset = 1171808,
				},
				tangent = {
					count = 136284,
					offset = 1580660,
				},
				uv0 = {
					count = 136284,
					offset = 1308092,
				},
			},
		},
	},
	vertexAttr = {
		normal = {
			count = 408852,
			numComp = 3,
			offset = 217820,
		},
		position = {
			count = 126372,
			numComp = 3,
			offset = 0,
		},
		tangent = {
			count = 545136,
			numComp = 4,
			offset = 626672,
		},
		uv0 = {
			count = 91448,
			numComp = 2,
			offset = 126372,
		},
	},
}
end
