function data()
return {
	subMeshes = {
		{
			indices = {
				normal = {
					count = 144648,
					offset = 876712,
				},
				position = {
					count = 144648,
					offset = 587416,
				},
				tangent = {
					count = 144648,
					offset = 1021360,
				},
				uv0 = {
					count = 144648,
					offset = 732064,
				},
				uv1 = {
					count = 144648,
					offset = 1166008,
				},
			},
		},
	},
	vertexAttr = {
		normal = {
			count = 101544,
			numComp = 3,
			offset = 210280,
		},
		position = {
			count = 114864,
			numComp = 3,
			offset = 0,
		},
		tangent = {
			count = 199056,
			numComp = 4,
			offset = 311824,
		},
		uv0 = {
			count = 95416,
			numComp = 2,
			offset = 114864,
		},
		uv1 = {
			count = 76536,
			numComp = 2,
			offset = 510880,
		},
	},
}
end
