function data()
return {
	subMeshes = {
		{
			indices = {
				normal = {
					count = 140280,
					offset = 1486388,
				},
				position = {
					count = 140280,
					offset = 1205828,
				},
				tangent = {
					count = 140280,
					offset = 1626668,
				},
				uv0 = {
					count = 140280,
					offset = 1346108,
				},
			},
		},
	},
	vertexAttr = {
		normal = {
			count = 420840,
			numComp = 3,
			offset = 223868,
		},
		position = {
			count = 129300,
			numComp = 3,
			offset = 0,
		},
		tangent = {
			count = 561120,
			numComp = 4,
			offset = 644708,
		},
		uv0 = {
			count = 94568,
			numComp = 2,
			offset = 129300,
		},
	},
}
end
