function data()
return { 
		subMeshes = {
			{ 
				indices = { 
					normal = { 
						count = 41556,
						offset = 467908,
					},
					position = { 
						count = 41556,
						offset = 384796,
					},
					tangent = { 
						count = 41556,
						offset = 509464,
					},
					uv0 = { 
						count = 41556,
						offset = 426352,
					},
				},
			},
		},
		vertexAttr = { 
			normal = { 
				count = 124668,
				numComp = 3,
				offset = 93904,
			},
			position = { 
				count = 52680,
				numComp = 3,
				offset = 0,
			},
			tangent = { 
				count = 166224,
				numComp = 4,
				offset = 218572,
			},
			uv0 = { 
				count = 41224,
				numComp = 2,
				offset = 52680,
			},
		},
	}
end