function data()
return { 
		subMeshes = {
			{ 
				indices = { 
					normal = { 
						count = 2640,
						offset = 30568,
					},
					position = { 
						count = 2640,
						offset = 25288,
					},
					tangent = { 
						count = 2640,
						offset = 33208,
					},
					uv0 = { 
						count = 2640,
						offset = 27928,
					},
				},
			},
			{ 
				indices = { 
					normal = { 
						count = 168,
						offset = 36184,
					},
					position = { 
						count = 168,
						offset = 35848,
					},
					tangent = { 
						count = 168,
						offset = 36352,
					},
					uv0 = { 
						count = 168,
						offset = 36016,
					},
				},
			},
		},
		vertexAttr = { 
			normal = { 
				count = 8424,
				numComp = 3,
				offset = 5632,
			},
			position = { 
				count = 3360,
				numComp = 3,
				offset = 0,
			},
			tangent = { 
				count = 11232,
				numComp = 4,
				offset = 14056,
			},
			uv0 = { 
				count = 2272,
				numComp = 2,
				offset = 3360,
			},
		},
	}
end