function data()
return {
	subMeshes = {
		{
			indices = {
				normal = {
					count = 19992,
					offset = 216248,
				},
				position = {
					count = 19992,
					offset = 176264,
				},
				tangent = {
					count = 19992,
					offset = 236240,
				},
				uv0 = {
					count = 19992,
					offset = 196256,
				},
			},
		},
	},
	vertexAttr = {
		normal = {
			count = 59976,
			numComp = 3,
			offset = 36320,
		},
		position = {
			count = 21264,
			numComp = 3,
			offset = 0,
		},
		tangent = {
			count = 79968,
			numComp = 4,
			offset = 96296,
		},
		uv0 = {
			count = 15056,
			numComp = 2,
			offset = 21264,
		},
	},
}
end
