function data()
return {
	subMeshes = {
		{
			indices = {
				normal = {
					count = 4272,
					offset = 22876,
				},
				position = {
					count = 4272,
					offset = 14332,
				},
				tangent = {
					count = 4272,
					offset = 27148,
				},
				uv0 = {
					count = 4272,
					offset = 18604,
				},
			},
		},
		{
			indices = {
				normal = {
					count = 204,
					offset = 31828,
				},
				position = {
					count = 204,
					offset = 31420,
				},
				tangent = {
					count = 204,
					offset = 32032,
				},
				uv0 = {
					count = 204,
					offset = 31624,
				},
			},
		},
	},
	vertexAttr = {
		normal = {
			count = 2664,
			numComp = 3,
			offset = 5444,
		},
		position = {
			count = 2364,
			numComp = 3,
			offset = 0,
		},
		tangent = {
			count = 6224,
			numComp = 4,
			offset = 8108,
		},
		uv0 = {
			count = 3080,
			numComp = 2,
			offset = 2364,
		},
	},
}
end
